<?xml version="1.0" standalone="no"?>
<!DOCTYPE svg PUBLIC "-//W3C//DTD SVG 20010904//EN"
 "http://www.w3.org/TR/2001/REC-SVG-20010904/DTD/svg10.dtd">
<svg version="1.0" xmlns="http://www.w3.org/2000/svg"
 width="144.000000pt" height="144.000000pt" viewBox="0 0 144.000000 144.000000"
 preserveAspectRatio="xMidYMid meet">
<metadata>
Created by potrace 1.11, written by Peter Selinger 2001-2013
</metadata>
<g transform="translate(0.000000,144.000000) scale(0.100000,-0.100000)"
fill="#000000" stroke="none">
<path d="M388 1252 l-327 -177 0 -355 0 -355 329 -177 330 -177 330 177 329
177 0 355 0 355 -325 175 c-179 96 -329 176 -332 177 -4 1 -154 -78 -334 -175z
m80 -174 l3 -106 242 -90 242 -90 3 200 2 199 38 -3 37 -3 5 -214 5 -213 67
-25 c66 -24 67 -25 55 -51 -17 -42 -20 -43 -75 -22 l-52 20 0 -113 0 -112 66
-24 c65 -23 66 -24 60 -54 -3 -17 -9 -33 -11 -36 -3 -2 -27 3 -53 12 -26 9
-50 17 -54 17 -5 0 -8 -27 -8 -60 l0 -60 -40 0 -40 0 0 78 0 79 -242 90 -243
91 -5 -167 -5 -166 -37 -3 -38 -3 0 185 0 184 -47 18 c-63 23 -64 24 -48 62
l14 33 37 -16 c20 -8 38 -15 41 -15 2 0 2 51 1 112 l-3 113 -51 18 -52 19 11
34 c12 39 15 39 62 20 l35 -15 0 95 0 95 38 -3 37 -3 3 -107z"/>
<path d="M472 779 l3 -112 223 -83 c122 -45 232 -86 243 -89 19 -6 20 -3 17
105 l-3 112 -221 83 c-121 45 -230 86 -243 90 -22 7 -22 6 -19 -106z"/>
</g>
</svg>
