<svg width="617" height="249" viewBox="0 0 617 249" fill="none" xmlns="http://www.w3.org/2000/svg">
<path d="M28.0258 168.09C42.6747 168.09 53.9192 160.147 53.9192 146.839C53.9192 122.493 18.4318 127.548 18.4318 112.796C18.4318 108.257 22.1456 105.472 27.2005 105.472C32.8744 105.472 36.6913 109.392 37.0008 116.407L52.0623 115.994C51.7528 102.17 41.9525 92.7827 26.9942 92.7827C12.758 92.7827 3.06084 101.242 3.06084 113.415C3.06084 137.348 38.1356 134.666 38.1356 147.768C38.1356 152.203 34.4218 155.401 28.129 155.401C21.3203 155.401 16.0591 151.275 15.8528 143.641H0.481812C0.688134 156.124 10.0758 168.09 28.0258 168.09Z" fill="white"/>
<path d="M87.9946 111.971C71.6951 111.971 60.1411 124.041 60.1411 140.237C60.1411 156.949 72.1078 168.09 88.8198 168.09C101.405 168.09 111.825 160.353 114.713 150.14L101.921 148.799C99.7549 153.029 95.319 156.02 88.923 156.02C81.3923 156.02 75.5121 151.275 74.7899 144.673H115.745C116.467 123.009 104.397 111.971 87.9946 111.971ZM87.9946 123.731C95.319 123.731 100.58 128.167 100.89 134.46H74.6868C75.2026 128.167 80.6701 123.731 87.9946 123.731Z" fill="white"/>
<path d="M157.993 112.074C149.018 112.074 141.9 116.097 139.218 122.493V122.184L136.639 113.105H124.569V190.786H139.218V159.115C143.241 165.099 150.359 168.193 157.168 168.193C173.88 168.193 183.99 156.227 183.99 140.237C183.99 124.969 174.396 112.074 157.993 112.074ZM154.176 154.989C145.511 154.989 139.321 148.696 139.321 140.134C139.321 131.468 145.511 125.278 154.176 125.278C162.945 125.278 169.238 131.365 169.238 140.134C169.238 148.799 162.945 154.989 154.176 154.989Z" fill="white"/>
<path d="M227.433 153.029C231.972 139.308 263.126 139.927 263.126 115.788C263.126 100.932 251.779 92.7827 238.368 92.7827C222.997 92.7827 211.959 103.305 211.959 116.51H226.917C227.33 110.423 231.765 106.4 237.955 106.4C244.557 106.4 248.168 110.526 248.168 115.478C248.168 130.54 211.959 130.333 211.959 157.258V167.059H263.23V153.029H227.433Z" fill="white"/>
<path d="M316.222 141.165V93.8143H302.502L268.562 142.816V153.029H301.676V167.059H316.222V153.029H326.332V141.165H316.222ZM302.811 112.899C302.192 116.407 301.78 121.255 301.78 127.342V141.165H284.139L302.811 112.899Z" fill="white"/>
<path d="M333.594 177.581H345.045L354.742 154.06H339.681L333.594 177.581Z" fill="white"/>
<path d="M398.696 153.029C403.235 139.308 434.39 139.927 434.39 115.788C434.39 100.932 423.042 92.7827 409.631 92.7827C394.26 92.7827 383.222 103.305 383.222 116.51H398.18C398.593 110.423 403.029 106.4 409.218 106.4C415.821 106.4 419.431 110.526 419.431 115.478C419.431 130.54 383.222 130.333 383.222 157.258V167.059H434.493V153.029H398.696Z" fill="white"/>
<path d="M471.066 168.09C485.612 168.09 499.951 159.012 499.951 140.959V119.914C499.951 101.861 485.612 92.7827 471.066 92.7827C456.52 92.7827 442.181 101.861 442.181 119.914V140.959C442.181 159.012 456.52 168.09 471.066 168.09ZM471.066 154.06C463.638 154.06 457.139 149.212 457.139 140.959V119.914C457.139 111.661 463.638 106.813 471.066 106.813C478.493 106.813 484.889 111.661 484.889 119.914V140.959C484.889 149.212 478.493 154.06 471.066 154.06Z" fill="white"/>
<path d="M522.812 153.029C527.351 139.308 558.505 139.927 558.505 115.788C558.505 100.932 547.158 92.7827 533.747 92.7827C518.376 92.7827 507.337 103.305 507.337 116.51H522.296C522.708 110.423 527.144 106.4 533.334 106.4C539.936 106.4 543.547 110.526 543.547 115.478C543.547 130.54 507.337 130.333 507.337 157.258V167.059H558.608V153.029H522.812Z" fill="white"/>
<path d="M580.739 153.029C585.278 139.308 616.433 139.927 616.433 115.788C616.433 100.932 605.085 92.7827 591.674 92.7827C576.303 92.7827 565.265 103.305 565.265 116.51H580.223C580.636 110.423 585.072 106.4 591.261 106.4C597.864 106.4 601.474 110.526 601.474 115.478C601.474 130.54 565.265 130.333 565.265 157.258V167.059H616.536V153.029H580.739Z" fill="white"/>
<path d="M103.476 241.046V214.567H113.613C115.526 214.567 117.117 214.868 118.384 215.472C119.659 216.066 120.612 216.881 121.241 217.915C121.879 218.95 122.198 220.122 122.198 221.432C122.198 222.51 121.991 223.432 121.577 224.199C121.164 224.958 120.608 225.574 119.909 226.048C119.211 226.522 118.431 226.863 117.569 227.069V227.328C118.509 227.38 119.41 227.669 120.271 228.194C121.142 228.712 121.853 229.444 122.405 230.392C122.957 231.341 123.232 232.487 123.232 233.832C123.232 235.202 122.901 236.435 122.237 237.529C121.573 238.616 120.573 239.473 119.237 240.102C117.901 240.732 116.22 241.046 114.195 241.046H103.476ZM108.273 237.038H113.432C115.173 237.038 116.427 236.706 117.194 236.043C117.97 235.37 118.358 234.508 118.358 233.457C118.358 232.672 118.164 231.965 117.776 231.336C117.388 230.698 116.837 230.198 116.121 229.836C115.406 229.466 114.552 229.28 113.561 229.28H108.273V237.038ZM108.273 225.828H113.018C113.845 225.828 114.591 225.677 115.255 225.376C115.919 225.065 116.44 224.63 116.819 224.07C117.207 223.501 117.401 222.829 117.401 222.053C117.401 221.027 117.039 220.182 116.315 219.519C115.6 218.855 114.535 218.523 113.121 218.523H108.273V225.828Z" fill="white"/>
<path d="M132.913 241.447C131.655 241.447 130.521 241.223 129.513 240.775C128.513 240.318 127.72 239.646 127.134 238.758C126.556 237.87 126.268 236.775 126.268 235.474C126.268 234.353 126.474 233.426 126.888 232.694C127.302 231.961 127.867 231.375 128.582 230.935C129.297 230.496 130.103 230.164 131 229.94C131.905 229.707 132.84 229.539 133.806 229.436C134.969 229.315 135.913 229.207 136.637 229.112C137.361 229.009 137.887 228.854 138.215 228.647C138.551 228.431 138.719 228.1 138.719 227.651V227.574C138.719 226.6 138.43 225.845 137.853 225.311C137.275 224.777 136.443 224.509 135.357 224.509C134.211 224.509 133.301 224.759 132.629 225.259C131.965 225.759 131.517 226.35 131.284 227.031L126.914 226.41C127.259 225.203 127.828 224.195 128.621 223.385C129.414 222.566 130.384 221.954 131.53 221.549C132.676 221.135 133.943 220.928 135.331 220.928C136.288 220.928 137.241 221.04 138.189 221.264C139.137 221.488 140.003 221.859 140.788 222.376C141.572 222.885 142.201 223.578 142.675 224.458C143.158 225.337 143.399 226.436 143.399 227.755V241.046H138.9V238.318H138.745C138.46 238.87 138.059 239.387 137.542 239.87C137.034 240.344 136.391 240.727 135.616 241.02C134.849 241.305 133.948 241.447 132.913 241.447ZM134.129 238.008C135.068 238.008 135.883 237.823 136.572 237.452C137.262 237.073 137.792 236.573 138.163 235.952C138.542 235.331 138.732 234.655 138.732 233.922V231.582C138.585 231.703 138.335 231.815 137.982 231.918C137.637 232.021 137.249 232.112 136.818 232.19C136.387 232.267 135.96 232.336 135.538 232.396C135.116 232.457 134.749 232.508 134.439 232.552C133.741 232.646 133.116 232.802 132.564 233.017C132.013 233.233 131.577 233.534 131.258 233.922C130.939 234.301 130.78 234.793 130.78 235.396C130.78 236.258 131.095 236.909 131.724 237.348C132.353 237.788 133.155 238.008 134.129 238.008Z" fill="white"/>
<path d="M152.786 229.41V241.046H148.106V221.186H152.579V224.561H152.812C153.269 223.449 153.997 222.566 154.997 221.911C156.006 221.255 157.251 220.928 158.734 220.928C160.104 220.928 161.298 221.221 162.315 221.807C163.341 222.393 164.134 223.242 164.694 224.354C165.263 225.466 165.543 226.815 165.535 228.401V241.046H160.854V229.125C160.854 227.798 160.509 226.759 159.82 226.009C159.139 225.259 158.195 224.884 156.988 224.884C156.169 224.884 155.441 225.065 154.803 225.427C154.174 225.781 153.678 226.294 153.316 226.966C152.963 227.638 152.786 228.453 152.786 229.41Z" fill="white"/>
<path d="M185.989 226.436L181.723 226.901C181.602 226.47 181.391 226.065 181.089 225.686C180.796 225.307 180.4 225.001 179.9 224.768C179.4 224.535 178.788 224.419 178.064 224.419C177.09 224.419 176.271 224.63 175.607 225.052C174.952 225.475 174.629 226.022 174.637 226.694C174.629 227.272 174.84 227.742 175.271 228.104C175.71 228.466 176.434 228.763 177.443 228.996L180.831 229.72C182.71 230.125 184.106 230.767 185.02 231.647C185.942 232.526 186.407 233.676 186.416 235.099C186.407 236.349 186.041 237.452 185.317 238.409C184.602 239.357 183.606 240.098 182.33 240.633C181.055 241.167 179.589 241.434 177.934 241.434C175.504 241.434 173.547 240.926 172.064 239.909C170.582 238.883 169.698 237.456 169.414 235.629L173.978 235.189C174.185 236.086 174.624 236.762 175.297 237.219C175.969 237.676 176.844 237.904 177.921 237.904C179.033 237.904 179.925 237.676 180.598 237.219C181.279 236.762 181.619 236.198 181.619 235.525C181.619 234.956 181.399 234.487 180.96 234.116C180.529 233.745 179.856 233.461 178.943 233.263L175.555 232.552C173.65 232.155 172.241 231.487 171.327 230.548C170.414 229.599 169.961 228.401 169.97 226.953C169.961 225.729 170.293 224.669 170.965 223.772C171.646 222.867 172.59 222.169 173.797 221.678C175.012 221.178 176.413 220.928 177.999 220.928C180.326 220.928 182.158 221.424 183.494 222.415C184.839 223.406 185.671 224.746 185.989 226.436Z" fill="white"/>
<path d="M194.542 234.814L194.529 229.164H195.279L202.416 221.186H207.886L199.107 230.961H198.137L194.542 234.814ZM190.276 241.046V214.567H194.956V241.046H190.276ZM202.74 241.046L196.275 232.009L199.43 228.712L208.338 241.046H202.74Z" fill="white"/>
<path d="M211.005 241.046V221.186H215.685V241.046H211.005ZM213.358 218.368C212.617 218.368 211.979 218.122 211.445 217.631C210.91 217.131 210.643 216.532 210.643 215.834C210.643 215.127 210.91 214.528 211.445 214.036C211.979 213.536 212.617 213.286 213.358 213.286C214.108 213.286 214.746 213.536 215.272 214.036C215.806 214.528 216.073 215.127 216.073 215.834C216.073 216.532 215.806 217.131 215.272 217.631C214.746 218.122 214.108 218.368 213.358 218.368Z" fill="white"/>
<path d="M238.71 241.046H229.737V214.567H238.891C241.52 214.567 243.778 215.097 245.666 216.157C247.562 217.208 249.019 218.721 250.036 220.695C251.053 222.669 251.562 225.031 251.562 227.781C251.562 230.539 251.049 232.909 250.023 234.892C249.006 236.874 247.536 238.396 245.614 239.456C243.701 240.516 241.399 241.046 238.71 241.046ZM234.534 236.896H238.477C240.322 236.896 241.86 236.56 243.093 235.887C244.326 235.206 245.252 234.194 245.873 232.849C246.493 231.496 246.804 229.806 246.804 227.781C246.804 225.755 246.493 224.074 245.873 222.738C245.252 221.393 244.334 220.389 243.119 219.725C241.912 219.053 240.412 218.717 238.619 218.717H234.534V236.896Z" fill="white"/>
<path d="M273.652 221.186L266.58 241.046H261.408L254.335 221.186H259.326L263.89 235.939H264.097L268.674 221.186H273.652Z" fill="white"/>
<path d="M284.878 241.434C282.939 241.434 281.258 241.008 279.836 240.154C278.413 239.301 277.31 238.107 276.526 236.573C275.75 235.038 275.362 233.245 275.362 231.194C275.362 229.142 275.75 227.345 276.526 225.802C277.31 224.259 278.413 223.061 279.836 222.208C281.258 221.355 282.939 220.928 284.878 220.928C286.818 220.928 288.499 221.355 289.921 222.208C291.343 223.061 292.442 224.259 293.218 225.802C294.002 227.345 294.394 229.142 294.394 231.194C294.394 233.245 294.002 235.038 293.218 236.573C292.442 238.107 291.343 239.301 289.921 240.154C288.499 241.008 286.818 241.434 284.878 241.434ZM284.904 237.685C285.956 237.685 286.835 237.396 287.542 236.818C288.249 236.232 288.774 235.448 289.119 234.465C289.473 233.483 289.649 232.388 289.649 231.181C289.649 229.966 289.473 228.867 289.119 227.884C288.774 226.893 288.249 226.104 287.542 225.518C286.835 224.932 285.956 224.639 284.904 224.639C283.827 224.639 282.93 224.932 282.215 225.518C281.508 226.104 280.978 226.893 280.624 227.884C280.28 228.867 280.107 229.966 280.107 231.181C280.107 232.388 280.28 233.483 280.624 234.465C280.978 235.448 281.508 236.232 282.215 236.818C282.93 237.396 283.827 237.685 284.904 237.685Z" fill="white"/>
<path d="M298.367 241.046V221.186H302.905V224.496H303.112C303.474 223.35 304.095 222.467 304.974 221.846C305.862 221.217 306.875 220.902 308.013 220.902C308.271 220.902 308.56 220.915 308.879 220.941C309.206 220.958 309.478 220.988 309.693 221.031V225.337C309.495 225.268 309.181 225.208 308.75 225.156C308.327 225.096 307.918 225.065 307.521 225.065C306.668 225.065 305.901 225.251 305.22 225.621C304.547 225.983 304.017 226.488 303.629 227.134C303.242 227.781 303.048 228.526 303.048 229.371V241.046H298.367Z" fill="white"/>
<path d="M316.022 237.426L315.854 238.848C315.734 239.934 315.518 241.038 315.208 242.158C314.906 243.287 314.587 244.326 314.251 245.274C313.915 246.222 313.643 246.968 313.436 247.511H310.282C310.402 246.985 310.566 246.27 310.773 245.365C310.988 244.46 311.195 243.443 311.394 242.313C311.592 241.184 311.725 240.038 311.794 238.874L311.885 237.426H316.022Z" fill="white"/>
<path d="M329.686 241.046V214.567H339.823C341.736 214.567 343.327 214.868 344.594 215.472C345.869 216.066 346.822 216.881 347.451 217.915C348.089 218.95 348.408 220.122 348.408 221.432C348.408 222.51 348.201 223.432 347.787 224.199C347.373 224.958 346.818 225.574 346.119 226.048C345.421 226.522 344.641 226.863 343.779 227.069V227.328C344.719 227.38 345.619 227.669 346.481 228.194C347.352 228.712 348.063 229.444 348.615 230.392C349.166 231.341 349.442 232.487 349.442 233.832C349.442 235.202 349.11 236.435 348.447 237.529C347.783 238.616 346.783 239.473 345.447 240.102C344.111 240.732 342.43 241.046 340.404 241.046H329.686ZM334.483 237.038H339.642C341.383 237.038 342.637 236.706 343.404 236.043C344.18 235.37 344.568 234.508 344.568 233.457C344.568 232.672 344.374 231.965 343.986 231.336C343.598 230.698 343.046 230.198 342.331 229.836C341.615 229.466 340.762 229.28 339.771 229.28H334.483V237.038ZM334.483 225.828H339.228C340.055 225.828 340.801 225.677 341.465 225.376C342.128 225.065 342.65 224.63 343.029 224.07C343.417 223.501 343.611 222.829 343.611 222.053C343.611 221.027 343.249 220.182 342.525 219.519C341.809 218.855 340.745 218.523 339.331 218.523H334.483V225.828Z" fill="white"/>
<path d="M359.123 241.447C357.865 241.447 356.731 241.223 355.723 240.775C354.723 240.318 353.93 239.646 353.344 238.758C352.766 237.87 352.477 236.775 352.477 235.474C352.477 234.353 352.684 233.426 353.098 232.694C353.512 231.961 354.076 231.375 354.792 230.935C355.507 230.496 356.313 230.164 357.21 229.94C358.115 229.707 359.05 229.539 360.015 229.436C361.179 229.315 362.123 229.207 362.847 229.112C363.571 229.009 364.097 228.854 364.424 228.647C364.761 228.431 364.929 228.1 364.929 227.651V227.574C364.929 226.6 364.64 225.845 364.062 225.311C363.485 224.777 362.653 224.509 361.567 224.509C360.421 224.509 359.511 224.759 358.839 225.259C358.175 225.759 357.727 226.35 357.494 227.031L353.124 226.41C353.469 225.203 354.038 224.195 354.831 223.385C355.624 222.566 356.593 221.954 357.74 221.549C358.886 221.135 360.153 220.928 361.541 220.928C362.498 220.928 363.45 221.04 364.398 221.264C365.347 221.488 366.213 221.859 366.997 222.376C367.782 222.885 368.411 223.578 368.885 224.458C369.368 225.337 369.609 226.436 369.609 227.755V241.046H365.11V238.318H364.954C364.67 238.87 364.269 239.387 363.752 239.87C363.243 240.344 362.601 240.727 361.826 241.02C361.058 241.305 360.158 241.447 359.123 241.447ZM360.339 238.008C361.278 238.008 362.093 237.823 362.782 237.452C363.472 237.073 364.002 236.573 364.373 235.952C364.752 235.331 364.942 234.655 364.942 233.922V231.582C364.795 231.703 364.545 231.815 364.192 231.918C363.847 232.021 363.459 232.112 363.028 232.19C362.597 232.267 362.17 232.336 361.748 232.396C361.326 232.457 360.959 232.508 360.649 232.552C359.951 232.646 359.326 232.802 358.774 233.017C358.222 233.233 357.787 233.534 357.468 233.922C357.149 234.301 356.99 234.793 356.99 235.396C356.99 236.258 357.304 236.909 357.934 237.348C358.563 237.788 359.365 238.008 360.339 238.008Z" fill="white"/>
<path d="M378.996 229.41V241.046H374.316V221.186H378.789V224.561H379.022C379.479 223.449 380.207 222.566 381.207 221.911C382.216 221.255 383.461 220.928 384.944 220.928C386.314 220.928 387.508 221.221 388.525 221.807C389.551 222.393 390.344 223.242 390.904 224.354C391.473 225.466 391.753 226.815 391.745 228.401V241.046H387.064V229.125C387.064 227.798 386.719 226.759 386.03 226.009C385.349 225.259 384.405 224.884 383.198 224.884C382.379 224.884 381.651 225.065 381.013 225.427C380.384 225.781 379.888 226.294 379.526 226.966C379.173 227.638 378.996 228.453 378.996 229.41Z" fill="white"/>
<path d="M396.503 221.186H401.183V242.184C401.183 243.615 400.912 244.796 400.369 245.727C399.826 246.658 399.041 247.352 398.015 247.809C396.99 248.265 395.744 248.494 394.279 248.494C394.106 248.494 393.947 248.489 393.8 248.481C393.654 248.481 393.494 248.477 393.322 248.468V244.654C393.451 244.662 393.568 244.667 393.671 244.667C393.775 244.675 393.882 244.68 393.994 244.68C394.891 244.68 395.533 244.46 395.921 244.02C396.309 243.589 396.503 242.956 396.503 242.119V221.186ZM398.83 218.368C398.08 218.368 397.438 218.122 396.904 217.631C396.378 217.131 396.115 216.532 396.115 215.834C396.115 215.127 396.378 214.528 396.904 214.036C397.438 213.536 398.08 213.286 398.83 213.286C399.571 213.286 400.205 213.536 400.731 214.036C401.265 214.528 401.532 215.127 401.532 215.834C401.532 216.532 401.265 217.131 400.731 217.631C400.205 218.122 399.571 218.368 398.83 218.368Z" fill="white"/>
<path d="M411.711 241.447C410.453 241.447 409.319 241.223 408.311 240.775C407.311 240.318 406.518 239.646 405.932 238.758C405.354 237.87 405.065 236.775 405.065 235.474C405.065 234.353 405.272 233.426 405.686 232.694C406.1 231.961 406.664 231.375 407.38 230.935C408.095 230.496 408.901 230.164 409.798 229.94C410.703 229.707 411.638 229.539 412.603 229.436C413.767 229.315 414.711 229.207 415.435 229.112C416.159 229.009 416.685 228.854 417.012 228.647C417.348 228.431 417.517 228.1 417.517 227.651V227.574C417.517 226.6 417.228 225.845 416.65 225.311C416.073 224.777 415.241 224.509 414.155 224.509C413.008 224.509 412.099 224.759 411.427 225.259C410.763 225.759 410.315 226.35 410.082 227.031L405.712 226.41C406.057 225.203 406.625 224.195 407.419 223.385C408.212 222.566 409.181 221.954 410.328 221.549C411.474 221.135 412.741 220.928 414.129 220.928C415.086 220.928 416.038 221.04 416.986 221.264C417.935 221.488 418.801 221.859 419.585 222.376C420.37 222.885 420.999 223.578 421.473 224.458C421.956 225.337 422.197 226.436 422.197 227.755V241.046H417.698V238.318H417.542C417.258 238.87 416.857 239.387 416.34 239.87C415.831 240.344 415.189 240.727 414.413 241.02C413.646 241.305 412.746 241.447 411.711 241.447ZM412.927 238.008C413.866 238.008 414.681 237.823 415.37 237.452C416.06 237.073 416.59 236.573 416.961 235.952C417.34 235.331 417.529 234.655 417.529 233.922V231.582C417.383 231.703 417.133 231.815 416.78 231.918C416.435 232.021 416.047 232.112 415.616 232.19C415.185 232.267 414.758 232.336 414.336 232.396C413.914 232.457 413.547 232.508 413.237 232.552C412.539 232.646 411.914 232.802 411.362 233.017C410.81 233.233 410.375 233.534 410.056 233.922C409.737 234.301 409.578 234.793 409.578 235.396C409.578 236.258 409.892 236.909 410.522 237.348C411.151 237.788 411.953 238.008 412.927 238.008Z" fill="white"/>
<path d="M436.142 241.046V214.567H440.939V237.025H452.601V241.046H436.142Z" fill="white"/>
<path d="M469.216 232.694V221.186H473.896V241.046H469.358V237.517H469.151C468.703 238.628 467.966 239.538 466.94 240.245C465.923 240.952 464.669 241.305 463.177 241.305C461.876 241.305 460.725 241.016 459.725 240.439C458.734 239.853 457.958 239.003 457.398 237.892C456.838 236.771 456.557 235.418 456.557 233.832V221.186H461.238V233.108C461.238 234.366 461.583 235.366 462.272 236.107C462.962 236.849 463.867 237.219 464.988 237.219C465.677 237.219 466.345 237.051 466.992 236.715C467.638 236.379 468.168 235.879 468.582 235.215C469.004 234.543 469.216 233.702 469.216 232.694Z" fill="white"/>
<path d="M482.976 234.814L482.963 229.164H483.713L490.85 221.186H496.319L487.54 230.961H486.57L482.976 234.814ZM478.709 241.046V214.567H483.39V241.046H478.709ZM491.173 241.046L484.708 232.009L487.863 228.712L496.772 241.046H491.173Z" fill="white"/>
<path d="M505.153 241.447C503.895 241.447 502.761 241.223 501.753 240.775C500.753 240.318 499.96 239.646 499.374 238.758C498.796 237.87 498.508 236.775 498.508 235.474C498.508 234.353 498.714 233.426 499.128 232.694C499.542 231.961 500.107 231.375 500.822 230.935C501.537 230.496 502.343 230.164 503.24 229.94C504.145 229.707 505.08 229.539 506.046 229.436C507.209 229.315 508.153 229.207 508.877 229.112C509.601 229.009 510.127 228.854 510.455 228.647C510.791 228.431 510.959 228.1 510.959 227.651V227.574C510.959 226.6 510.67 225.845 510.092 225.311C509.515 224.777 508.683 224.509 507.597 224.509C506.451 224.509 505.541 224.759 504.869 225.259C504.205 225.759 503.757 226.35 503.524 227.031L499.154 226.41C499.499 225.203 500.068 224.195 500.861 223.385C501.654 222.566 502.624 221.954 503.77 221.549C504.916 221.135 506.183 220.928 507.571 220.928C508.528 220.928 509.48 221.04 510.429 221.264C511.377 221.488 512.243 221.859 513.028 222.376C513.812 222.885 514.441 223.578 514.915 224.458C515.398 225.337 515.639 226.436 515.639 227.755V241.046H511.14V238.318H510.985C510.7 238.87 510.299 239.387 509.782 239.87C509.274 240.344 508.631 240.727 507.856 241.02C507.089 241.305 506.188 241.447 505.153 241.447ZM506.369 238.008C507.308 238.008 508.123 237.823 508.812 237.452C509.502 237.073 510.032 236.573 510.403 235.952C510.782 235.331 510.972 234.655 510.972 233.922V231.582C510.825 231.703 510.575 231.815 510.222 231.918C509.877 232.021 509.489 232.112 509.058 232.19C508.627 232.267 508.2 232.336 507.778 232.396C507.356 232.457 506.989 232.508 506.679 232.552C505.981 232.646 505.356 232.802 504.804 233.017C504.253 233.233 503.817 233.534 503.498 233.922C503.179 234.301 503.02 234.793 503.02 235.396C503.02 236.258 503.335 236.909 503.964 237.348C504.593 237.788 505.395 238.008 506.369 238.008Z" fill="white"/>
<path d="M104.574 31.543C104.574 29.0143 105.071 26.4855 106.063 23.9567C107.122 21.3614 108.545 18.8992 110.332 16.5701C112.118 14.2409 114.17 12.0782 116.486 10.0818C118.868 8.01885 121.35 6.25537 123.93 4.79135C126.577 3.32732 129.257 2.16276 131.971 1.29765C134.684 0.432552 137.298 0 139.812 0C143.783 0 147.158 0.964924 149.937 2.89477C152.716 4.75807 154.569 7.48648 155.496 11.08C155.893 12.6106 156.025 14.4739 155.893 16.6699C155.76 18.8659 155.363 20.9289 154.701 22.8587C154.04 24.722 153.51 25.9531 153.113 26.552C152.782 27.0844 152.385 27.2508 151.922 27.0511C151.525 26.918 151.36 26.6186 151.426 26.1528C151.492 25.6869 151.79 24.6555 152.319 23.0583C153.378 19.8641 153.874 17.1357 153.808 14.8731C153.742 12.544 153.113 10.3147 151.922 8.18521C150.797 6.25537 149.143 4.79135 146.959 3.79315C144.841 2.79495 142.393 2.29585 139.614 2.29585C136.57 2.29585 133.426 2.96132 130.184 4.29225C126.941 5.62318 123.864 7.38666 120.953 9.58269C118.041 11.7122 115.427 14.1744 113.111 16.9693C110.861 19.6978 109.173 22.4927 108.049 25.3542C107.85 25.9531 107.685 26.4522 107.552 26.8515C107.42 27.2508 107.321 27.6501 107.254 28.0493C107.188 28.4486 107.122 28.8812 107.056 29.347C107.056 29.8128 107.056 30.445 107.056 31.2436C107.056 32.7076 107.089 33.7058 107.155 34.2382C107.221 34.7705 107.453 35.436 107.85 36.2345C109.372 39.4288 112.648 41.6914 117.677 43.0223C118.272 43.1554 119.497 43.3883 121.35 43.721C123.202 43.9872 125.122 44.2867 127.107 44.6194C130.085 45.0187 132.566 45.418 134.551 45.8172C136.603 46.2165 138.29 46.6491 139.614 47.1149C141.003 47.5807 142.128 48.1464 142.989 48.8118C143.849 49.4773 144.577 50.2426 145.172 51.1077C145.503 51.5735 145.702 51.9728 145.768 52.3055C145.9 52.7048 146 53.337 146.066 54.2021C146.132 55.1338 146.132 55.7992 146.066 56.1985C146 56.5978 145.801 57.1634 145.47 57.8954C145.205 58.4278 144.808 59.0267 144.279 59.6922C143.816 60.3576 143.286 60.9898 142.691 61.5888C142.095 62.1877 141.434 62.72 140.706 63.1859C140.044 63.7182 139.415 64.1175 138.82 64.3837C138.158 64.7164 137.331 65.0492 136.338 65.3819C135.345 65.7146 134.353 65.9808 133.36 66.1805C132.434 66.3801 131.54 66.5132 130.68 66.5797C129.886 66.7128 129.291 66.7128 128.893 66.5797C128.232 66.3801 127.769 66.0141 127.504 65.4817C127.239 64.9493 127.305 64.5501 127.702 64.2839C128.033 64.0843 128.794 64.051 129.985 64.1841C131.176 64.1841 132.533 63.9844 134.055 63.5851C135.577 63.2524 136.901 62.7866 138.025 62.1877C139.746 61.256 141.169 59.9916 142.294 58.3945C143.419 56.864 143.915 55.4665 143.783 54.2021C143.65 52.4719 142.426 51.0411 140.11 49.9099C137.86 48.8451 134.32 47.98 129.489 47.3145C128.298 47.1149 126.974 46.9153 125.519 46.7156C124.129 46.5825 123.004 46.4494 122.144 46.3163C119.96 45.9836 117.809 45.5178 115.692 44.9189C113.574 44.2534 111.688 43.355 110.034 42.2237C108.379 41.0924 107.056 39.6617 106.063 37.9315C105.071 36.2013 104.574 34.0718 104.574 31.543Z" fill="white"/>
<path d="M192.906 42.3236C193.502 42.9891 192.873 44.2535 191.02 46.1168C189.63 47.4477 187.91 48.7454 185.858 50.0097C183.873 51.2076 181.855 51.8065 179.804 51.8065C178.546 51.8065 177.388 51.5403 176.329 51.0079C174.543 49.9432 173.285 48.2463 172.557 45.9171C172.425 45.4513 172.293 45.0188 172.16 44.6195C172.094 44.1537 172.028 43.8542 171.962 43.7211C171.83 43.5215 171.499 43.588 170.969 43.9207C170.44 44.2535 169.216 45.1186 167.297 46.516C164.583 48.579 162.565 49.9765 161.242 50.7085C159.918 51.3739 158.793 51.7067 157.867 51.7067C156.874 51.7067 156.212 51.5403 155.882 51.2076C154.955 50.2759 154.823 48.9117 155.484 47.115C156.146 45.3182 157.503 43.3884 159.554 41.3254C160.812 40.061 162.201 38.963 163.723 38.0314C165.311 37.0997 167.032 36.6339 168.885 36.6339C170.407 36.6339 171.73 37.1995 172.855 38.3308C174.113 39.4621 174.443 40.3272 173.848 40.9261C173.649 41.1258 173.616 41.392 173.749 41.7247C173.881 42.0574 173.98 42.4234 174.046 42.8227C174.179 43.1555 174.311 43.4882 174.443 43.8209C174.84 45.7508 175.436 47.1482 176.23 48.0133C177.09 48.8119 178.215 49.2777 179.605 49.4108C180.399 49.4774 180.995 49.4441 181.392 49.311C181.855 49.1779 182.682 48.8119 183.873 48.213C186.719 46.8155 189.002 45.1518 190.722 43.222C191.318 42.49 191.748 42.0907 192.013 42.0242C192.277 41.8911 192.575 41.9909 192.906 42.3236ZM172.16 40.5269L171.267 39.7283C170.936 39.3956 170.605 39.1959 170.274 39.1294C170.01 38.9963 169.447 38.9298 168.587 38.9298C167.263 38.9298 166.039 39.2625 164.914 39.928C163.789 40.5269 162.532 41.5583 161.142 43.0224C160.679 43.4882 160.216 44.0206 159.753 44.6195C159.29 45.2184 158.859 45.8173 158.462 46.4162C158.131 47.0151 157.834 47.5475 157.569 48.0133C157.37 48.4792 157.271 48.8452 157.271 49.1114C157.271 49.311 157.437 49.4108 157.768 49.4108C157.966 49.4108 158.264 49.3775 158.661 49.311C159.058 49.1779 159.521 48.945 160.051 48.6123C160.514 48.4126 161.308 47.9468 162.433 47.2148C163.558 46.4162 164.716 45.5511 165.907 44.6195C167.032 43.7544 168.091 42.9891 169.083 42.3236C170.142 41.5916 170.837 41.1591 171.168 41.026L172.16 40.5269Z" fill="white"/>
<path d="M221.296 41.5251C221.626 41.8578 221.726 42.2238 221.593 42.6231C221.461 42.9558 221.13 43.222 220.601 43.4216C220.204 43.5547 219.641 43.6878 218.913 43.8209C218.185 43.954 217.358 44.0871 216.432 44.2202C215.505 44.2867 214.546 44.3533 213.553 44.4198C212.561 44.4864 211.634 44.5197 210.774 44.5197C209.12 44.5197 208.028 44.4198 207.498 44.2202C207.167 44.0871 206.903 44.0871 206.704 44.2202C206.572 44.3533 206.274 44.7526 205.811 45.418C205.149 46.2831 204.289 47.2148 203.23 48.213C202.237 49.2112 201.377 49.8766 200.649 50.2094C200.054 50.5421 199.392 50.775 198.664 50.9081C197.936 50.9747 197.307 50.9414 196.778 50.8083C196.646 50.8083 196.414 50.7085 196.083 50.5088C195.819 50.3092 195.554 50.1095 195.289 49.9099C194.164 48.6455 193.8 46.5826 194.197 43.7211C194.727 39.4621 195.62 37.499 196.877 37.8317C197.208 37.8983 197.341 38.231 197.274 38.8299C197.274 39.3623 197.076 40.3272 196.679 41.7247C196.348 43.1222 196.182 44.4531 196.182 45.7175C196.182 46.9153 196.414 47.7472 196.877 48.213C197.208 48.5457 197.44 48.7121 197.572 48.7121C197.771 48.7121 198.135 48.6455 198.664 48.5124C199.26 48.3793 200.087 47.847 201.146 46.9153C202.271 45.9171 203.23 44.9189 204.024 43.9207L204.917 42.8227L204.322 41.6249C203.925 40.8263 203.726 40.1276 203.726 39.5287C203.726 38.9298 203.958 38.1645 204.421 37.2328C205.348 35.5026 206.44 34.6375 207.697 34.6375C208.888 34.6375 209.583 35.2031 209.781 36.3344C209.98 37.4657 209.616 38.8965 208.689 40.6267C208.491 41.1591 208.359 41.4918 208.292 41.6249C208.292 41.758 208.359 41.8911 208.491 42.0242C208.623 42.0907 209.086 42.1573 209.881 42.2238C210.675 42.2238 211.568 42.1905 212.561 42.124C213.619 42.0574 214.678 41.9909 215.737 41.9243C216.796 41.7912 217.689 41.6581 218.417 41.5251C219.542 41.3254 220.237 41.2256 220.502 41.2256C220.832 41.2256 221.097 41.3254 221.296 41.5251ZM207.3 37.6321C207.366 37.1663 207.201 37.1995 206.803 37.7319C206.473 38.1312 206.241 38.597 206.109 39.1294C206.042 39.5952 206.076 39.9279 206.208 40.1276C206.34 40.2607 206.539 39.9945 206.803 39.329C207.134 38.597 207.3 38.0314 207.3 37.6321Z" fill="white"/>
<path d="M249.387 41.5251C250.379 42.124 250.214 42.8893 248.89 43.8209C248.229 44.3533 247.203 44.9522 245.813 45.6177C244.49 46.2831 243.067 46.9486 241.545 47.6141C240.023 48.2795 238.534 48.8784 237.078 49.4108C235.622 49.8766 234.398 50.2094 233.406 50.409C232.876 50.5421 232.214 50.6419 231.42 50.7085C230.692 50.775 229.931 50.8416 229.137 50.9081C228.409 50.9081 227.714 50.8748 227.053 50.8083C226.457 50.7417 225.994 50.6752 225.663 50.6087C224.207 50.2094 223.082 49.5439 222.288 48.6123C221.56 47.6806 221.163 46.6159 221.097 45.418C221.097 44.1536 221.395 42.8227 221.99 41.4252C222.652 40.0278 223.678 38.6303 225.068 37.2328C226.391 35.9019 227.681 34.937 228.939 34.338C230.196 33.7391 231.321 33.4397 232.314 33.4397C233.372 33.4397 234.2 33.7391 234.795 34.338C235.457 34.937 235.788 35.9019 235.788 37.2328C235.788 38.231 235.523 39.2292 234.994 40.2274C234.464 41.1591 233.769 42.0242 232.909 42.8227C232.049 43.5547 231.089 44.1537 230.031 44.6195C228.972 45.0853 227.88 45.3182 226.755 45.3182C226.226 45.3182 225.696 45.3182 225.167 45.3182C224.704 45.2517 224.373 45.1518 224.174 45.0187C223.843 44.8857 223.612 44.8524 223.479 44.9189C223.413 44.9189 223.38 45.052 223.38 45.3182C223.38 45.8506 223.546 46.3497 223.876 46.8155C224.273 47.2813 224.737 47.6473 225.266 47.9135C225.994 48.2463 227.053 48.4792 228.442 48.6123C229.898 48.6788 231.255 48.579 232.512 48.3128C233.439 48.1132 234.564 47.7804 235.887 47.3146C237.277 46.7822 238.699 46.2166 240.155 45.6177C241.611 45.0187 243.034 44.3866 244.424 43.7211C245.813 43.0556 246.971 42.4234 247.898 41.8245C248.559 41.4252 249.056 41.3254 249.387 41.5251ZM225.068 40.6267C224.538 41.4252 224.273 41.9909 224.273 42.3236C224.273 42.5898 224.472 42.8227 224.869 43.0224C225.862 43.4216 227.086 43.3551 228.542 42.8227C229.336 42.5565 230.097 42.124 230.825 41.5251C231.553 40.8596 232.148 40.1941 232.611 39.5287C233.075 38.7967 233.372 38.0979 233.505 37.4325C233.637 36.767 233.505 36.2679 233.108 35.9352C232.777 35.669 232.247 35.6357 231.52 35.8353C230.858 35.9684 230.13 36.2679 229.336 36.7337C228.542 37.1995 227.748 37.7985 226.954 38.5305C226.226 39.1959 225.597 39.8947 225.068 40.6267Z" fill="white"/>
<path d="M258.97 27.8498C258.441 27.517 258.209 27.1178 258.276 26.6519C258.342 26.1861 258.64 25.7868 259.169 25.4541C259.632 25.1214 260.525 24.7554 261.849 24.3561C263.106 23.9568 264.628 23.5242 266.415 23.0584C268.135 22.5926 270.088 22.1268 272.271 21.661C274.389 21.1286 276.606 20.6628 278.922 20.2635C280.378 19.9308 281.635 19.6646 282.694 19.4649C283.753 19.2653 284.348 19.0989 284.481 18.9658C284.547 18.8993 284.613 18.5998 284.679 18.0675C284.745 17.4685 284.778 16.8031 284.778 16.0711C284.778 15.0063 284.811 14.2743 284.878 13.875C284.944 13.4758 285.043 13.2096 285.175 13.0765C285.771 12.7437 286.3 12.8768 286.764 13.4758C286.896 13.7419 286.995 14.0747 287.061 14.4739C287.128 14.8732 287.094 15.5387 286.962 16.4703L286.764 18.866L291.826 18.2671C294.605 17.9344 297.153 17.6682 299.469 17.4685C301.851 17.2689 303.969 17.1691 305.822 17.1691C308.072 17.1691 309.825 17.3354 311.083 17.6682C312.34 17.9344 312.969 18.3336 312.969 18.866C312.969 19.0657 312.869 19.2653 312.671 19.4649C312.538 19.5315 311.711 19.598 310.189 19.6646C308.733 19.6646 306.947 19.6646 304.829 19.6646C303.042 19.6646 301.454 19.6978 300.065 19.7644C298.741 19.8309 297.418 19.9308 296.094 20.0638C294.771 20.1304 293.414 20.2635 292.024 20.4631C290.701 20.6628 289.146 20.8957 287.359 21.1619C287.094 21.2284 286.863 21.295 286.664 21.3615C286.532 21.3615 286.4 21.5611 286.267 21.9604C286.135 22.3597 286.003 22.9919 285.87 23.857C285.804 24.7221 285.672 26.0197 285.473 27.7499C285.01 31.41 284.613 35.2031 284.282 39.1294C283.951 42.9891 283.686 46.7822 283.488 50.5088C283.289 54.2354 283.157 57.7624 283.091 61.0897C283.091 64.4836 283.157 67.5115 283.289 70.1733C283.356 70.8388 283.356 71.2381 283.289 71.3711C283.223 71.5042 283.058 71.6041 282.793 71.6706C282.396 71.7372 282.032 71.5042 281.701 70.9719C281.238 70.373 280.94 68.9089 280.808 66.5798C280.742 64.2507 280.808 60.8901 281.006 56.498C281.139 53.2372 281.304 49.9099 281.503 46.516C281.701 43.1222 281.933 39.8947 282.198 36.8335C282.462 33.7724 282.76 31.0107 283.091 28.5485C283.422 26.0197 283.72 24.0233 283.984 22.5593C284.05 22.0269 283.918 21.7608 283.587 21.7608C283.19 21.7608 282.363 21.8606 281.106 22.0602C279.915 22.2599 278.492 22.526 276.837 22.8588C275.183 23.1915 273.462 23.5908 271.676 24.0566C269.889 24.4559 268.235 24.8552 266.713 25.2545C265.125 25.6537 263.801 26.0863 262.742 26.5521C261.684 26.9514 261.088 27.2841 260.956 27.5503C260.559 28.3489 259.897 28.4487 258.97 27.8498Z" fill="white"/>
<path d="M328.495 43.3218C328.561 43.7876 328.33 44.2535 327.801 44.7193C327.271 45.1186 326.345 45.6509 325.021 46.3164C321.779 47.9801 319.065 48.8119 316.882 48.8119C314.963 48.8119 313.441 48.1797 312.316 46.9153C311.257 45.6509 310.364 44.2202 309.636 42.6231C309.305 41.8911 308.974 41.2589 308.643 40.7265C308.378 40.1941 308.18 39.8947 308.047 39.8281C307.65 39.4954 306.956 39.9279 305.963 41.1258C304.97 42.3236 303.912 43.9873 302.787 46.1168C302.39 46.8488 301.959 47.5808 301.496 48.3128C301.099 48.9783 300.801 49.4108 300.603 49.6105C300.206 50.1428 299.643 50.409 298.915 50.409C298.452 50.409 297.989 50.2426 297.526 49.9099C297.062 49.5772 296.599 48.9117 296.136 47.9135C295.673 46.8488 295.309 45.7508 295.044 44.6195C294.846 43.8875 294.713 42.9558 294.647 41.8245C294.581 40.6932 294.548 39.4954 294.548 38.231C294.548 36.9001 294.581 35.6024 294.647 34.338C294.779 33.0071 294.912 31.8758 295.044 30.9442C295.574 27.5503 296.235 24.5225 297.029 21.8606C297.89 19.1987 298.915 16.67 300.107 14.2743C303.217 8.08549 306.36 4.99108 309.536 4.99108C311.985 4.99108 313.375 6.55492 313.705 9.6826C314.036 12.7437 313.242 16.8696 311.323 22.0602C310.595 23.9235 309.768 25.8534 308.842 27.8498C307.915 29.8462 306.856 31.8093 305.665 33.7391C304.474 35.6024 303.184 37.3659 301.794 39.0296C300.404 40.6932 298.882 42.0907 297.228 43.222C297.162 43.2885 297.162 43.5215 297.228 43.9207C297.36 44.32 297.493 44.7858 297.625 45.3182C297.757 45.784 297.923 46.2499 298.121 46.7157C298.32 47.1815 298.452 47.481 298.518 47.6141C298.783 47.9468 298.948 48.0799 299.015 48.0133C299.147 47.9468 299.379 47.5808 299.709 46.9153C299.908 46.5826 300.14 46.15 300.404 45.6177C300.735 45.0853 301 44.5862 301.198 44.1204C302.257 42.0574 303.382 40.427 304.573 39.2292C305.764 38.0314 306.856 37.4325 307.849 37.4325C308.643 37.4325 309.305 37.7319 309.834 38.3308C310.43 38.8632 310.992 39.7949 311.522 41.1258C312.051 42.4567 312.713 43.6213 313.507 44.6195C314.301 45.5511 315.095 46.1168 315.889 46.3164C316.551 46.5826 317.444 46.5826 318.569 46.3164C319.099 46.1833 319.694 46.0169 320.356 45.8173C321.084 45.5511 321.779 45.2849 322.44 45.0187C323.168 44.686 323.83 44.3533 324.426 44.0206C325.087 43.6878 325.617 43.3884 326.014 43.1222C326.609 42.7229 327.139 42.5233 327.602 42.5233C328.065 42.5233 328.363 42.7894 328.495 43.3218ZM296.831 40.8263L297.724 40.2274C298.651 39.4288 299.412 38.6303 300.007 37.8317C301 36.7004 301.926 35.4361 302.787 34.0386C303.647 32.6411 304.639 30.9109 305.764 28.848C306.956 26.5854 307.948 24.3561 308.742 22.1601C309.603 19.964 310.264 17.9676 310.727 16.1709C311.191 14.3076 311.422 12.6772 311.422 11.2797C311.488 9.88224 311.323 8.8175 310.926 8.08549C310.595 7.61966 310.364 7.35348 310.231 7.28693C310.099 7.22039 309.768 7.22039 309.239 7.28693C308.511 7.42003 307.683 7.88585 306.757 8.68441C305.897 9.48297 305.036 10.5477 304.176 11.8786C303.316 13.143 302.489 14.6403 301.695 16.3705C300.901 18.0342 300.206 19.8309 299.61 21.7608C298.75 24.3561 298.121 26.8183 297.724 29.1474C297.327 31.41 297.062 33.8057 296.93 36.3344L296.831 40.8263Z" fill="white"/>
<path d="M357.215 41.5251C358.208 42.124 358.042 42.8893 356.719 43.8209C356.057 44.3533 355.031 44.9522 353.642 45.6177C352.318 46.2831 350.896 46.9486 349.374 47.6141C347.852 48.2795 346.363 48.8784 344.907 49.4108C343.451 49.8766 342.227 50.2094 341.234 50.409C340.705 50.5421 340.043 50.6419 339.249 50.7085C338.521 50.775 337.76 50.8416 336.966 50.9081C336.238 50.9081 335.543 50.8748 334.881 50.8083C334.286 50.7417 333.823 50.6752 333.492 50.6087C332.036 50.2094 330.911 49.5439 330.117 48.6123C329.389 47.6806 328.992 46.6159 328.926 45.418C328.926 44.1536 329.223 42.8227 329.819 41.4252C330.481 40.0278 331.507 38.6303 332.896 37.2328C334.22 35.9019 335.51 34.937 336.767 34.338C338.025 33.7391 339.15 33.4397 340.142 33.4397C341.201 33.4397 342.028 33.7391 342.624 34.338C343.285 34.937 343.616 35.9019 343.616 37.2328C343.616 38.231 343.352 39.2292 342.822 40.2274C342.293 41.1591 341.598 42.0242 340.738 42.8227C339.878 43.5547 338.918 44.1537 337.859 44.6195C336.8 45.0853 335.709 45.3182 334.584 45.3182C334.054 45.3182 333.525 45.3182 332.995 45.3182C332.532 45.2517 332.201 45.1518 332.003 45.0187C331.672 44.8857 331.44 44.8524 331.308 44.9189C331.242 44.9189 331.209 45.052 331.209 45.3182C331.209 45.8506 331.374 46.3497 331.705 46.8155C332.102 47.2813 332.565 47.6473 333.095 47.9135C333.823 48.2463 334.881 48.4792 336.271 48.6123C337.727 48.6788 339.083 48.579 340.341 48.3128C341.267 48.1132 342.392 47.7804 343.716 47.3146C345.105 46.7822 346.528 46.2166 347.984 45.6177C349.44 45.0187 350.862 44.3866 352.252 43.7211C353.642 43.0556 354.8 42.4234 355.726 41.8245C356.388 41.4252 356.884 41.3254 357.215 41.5251ZM332.896 40.6267C332.367 41.4252 332.102 41.9909 332.102 42.3236C332.102 42.5898 332.301 42.8227 332.698 43.0224C333.69 43.4216 334.914 43.3551 336.37 42.8227C337.164 42.5565 337.925 42.124 338.653 41.5251C339.381 40.8596 339.977 40.1941 340.44 39.5287C340.903 38.7967 341.201 38.0979 341.333 37.4325C341.466 36.767 341.333 36.2679 340.936 35.9352C340.605 35.669 340.076 35.6357 339.348 35.8353C338.686 35.9684 337.958 36.2679 337.164 36.7337C336.37 37.1995 335.576 37.7985 334.782 38.5305C334.054 39.1959 333.426 39.8947 332.896 40.6267Z" fill="white"/>
<path d="M426.327 42.2238C426.393 42.5565 426.36 42.8227 426.228 43.0224C426.095 43.222 425.765 43.4882 425.235 43.8209C424.507 44.3533 423.581 44.9189 422.456 45.5178C421.397 46.1168 420.272 46.6824 419.081 47.2148C417.89 47.6806 416.732 48.0799 415.607 48.4126C414.548 48.7454 413.622 48.945 412.827 49.0115C410.181 49.3443 407.666 48.8784 405.284 47.6141C402.968 46.2831 401.214 44.4198 400.023 42.0242C399.758 41.4918 399.526 41.026 399.328 40.6267C399.129 40.2274 399.03 39.9945 399.03 39.928C398.964 39.8614 398.6 40.1276 397.938 40.7265C397.343 41.3254 396.582 42.0907 395.655 43.0224C390.427 48.0799 386.292 50.6087 383.248 50.6087C382.586 50.6087 382.123 50.5754 381.858 50.5088C381.593 50.3757 381.295 50.1096 380.965 49.7103C380.568 49.3775 380.303 49.1114 380.17 48.9117C380.104 48.6455 380.104 48.1797 380.17 47.5142C380.303 46.2499 380.766 45.0188 381.56 43.8209C382.354 42.5565 383.314 41.4252 384.439 40.427C385.564 39.4288 386.788 38.6303 388.111 38.0314C389.501 37.4325 390.791 37.133 391.983 37.133C393.438 37.133 394.663 37.499 395.655 38.231C396.052 38.5637 396.284 38.7301 396.35 38.7301C396.482 38.7301 396.714 38.597 397.045 38.3308C397.31 38.0647 397.508 37.8317 397.641 37.6321C397.773 37.4325 397.839 37.1663 397.839 36.8335C397.905 36.5008 397.905 36.0683 397.839 35.5359C397.839 34.937 397.773 34.205 397.641 33.3398C397.508 32.3417 397.409 31.2104 397.343 29.946C397.343 28.615 397.343 27.2841 397.343 25.9532C397.343 24.5557 397.376 23.2248 397.442 21.9604C397.574 20.6295 397.74 19.4649 397.938 18.4667C398.997 11.8121 401.148 6.75456 404.39 3.29414C406.111 1.49739 407.732 0.59901 409.254 0.59901C410.578 0.59901 411.636 1.33102 412.43 2.79505C412.827 3.5936 413.059 4.79144 413.125 6.38856C413.258 7.98567 413.158 9.64933 412.827 11.3795C412.563 13.1763 412.066 15.1727 411.339 17.3687C410.611 19.4982 409.75 21.6942 408.758 23.9568C407.765 26.1528 406.673 28.2823 405.482 30.3453C404.357 32.4082 403.199 34.2382 402.008 35.8353C401.677 36.2346 401.412 36.6339 401.214 37.0332C401.015 37.4325 400.916 37.6986 400.916 37.8317C400.916 38.0314 401.015 38.3974 401.214 38.9298C401.412 39.3956 401.644 39.9279 401.909 40.5269C402.24 41.1258 402.57 41.6914 402.901 42.2238C403.232 42.7562 403.53 43.1887 403.795 43.5215C404.853 44.6528 406.243 45.5178 407.964 46.1168C409.684 46.7157 411.405 46.882 413.125 46.6159C414.25 46.4162 415.772 45.9504 417.691 45.2184C419.61 44.4198 421.298 43.588 422.754 42.7229C424.077 41.8578 425.037 41.4252 425.632 41.4252C426.095 41.4252 426.327 41.6914 426.327 42.2238ZM400.221 18.866C400.023 19.9973 399.857 21.4613 399.725 23.2581C399.659 25.0548 399.626 26.785 399.626 28.4487C399.692 30.1123 399.758 31.5098 399.824 32.6411C399.957 33.7724 400.122 34.2382 400.321 34.0386C400.387 33.972 400.585 33.6726 400.916 33.1402C401.313 32.5413 401.776 31.8758 402.306 31.1438C403.894 28.615 405.383 25.7868 406.773 22.6591C408.162 19.5315 409.254 16.4703 410.048 13.4758C410.247 12.6106 410.412 11.7123 410.544 10.7806C410.677 9.78242 410.743 8.85077 410.743 7.98567C410.809 7.05402 410.809 6.22219 410.743 5.49018C410.677 4.75817 410.544 4.2258 410.346 3.89306C409.949 3.29415 409.519 2.99469 409.056 2.99469C408.526 2.99469 407.897 3.26087 407.17 3.79324C405.581 5.12417 404.159 7.12057 402.901 9.78242C401.71 12.3777 400.817 15.4056 400.221 18.866ZM393.472 42.0242C394.199 41.3587 394.596 40.8596 394.663 40.5269C394.729 40.1941 394.431 39.8947 393.769 39.6285C392.578 39.1627 391.222 39.1959 389.7 39.7283C388.244 40.2607 386.854 41.1923 385.531 42.5233C385.134 42.9225 384.736 43.3884 384.339 43.9207C383.942 44.4531 383.578 44.9855 383.248 45.5178C382.983 46.0502 382.751 46.5493 382.553 47.0151C382.42 47.4144 382.387 47.7139 382.453 47.9135C382.52 48.1797 382.784 48.3128 383.248 48.3128C383.975 48.3128 384.803 48.0799 385.729 47.6141C386.722 47.0817 387.714 46.4828 388.707 45.8173C389.7 45.1518 390.626 44.4531 391.486 43.7211C392.347 42.9891 393.008 42.4234 393.472 42.0242Z" fill="white"/>
<path d="M460.978 42.3236C461.573 42.9891 460.945 44.2535 459.092 46.1168C457.702 47.4477 455.982 48.7454 453.93 50.0097C451.945 51.2076 449.927 51.8065 447.875 51.8065C446.618 51.8065 445.46 51.5403 444.401 51.0079C442.615 49.9432 441.357 48.2463 440.629 45.9171C440.497 45.4513 440.365 45.0188 440.232 44.6195C440.166 44.1537 440.1 43.8542 440.034 43.7211C439.901 43.5215 439.57 43.588 439.041 43.9207C438.512 44.2535 437.287 45.1186 435.368 46.516C432.655 48.579 430.637 49.9765 429.314 50.7085C427.99 51.3739 426.865 51.7067 425.939 51.7067C424.946 51.7067 424.284 51.5403 423.953 51.2076C423.027 50.2759 422.895 48.9117 423.556 47.115C424.218 45.3182 425.575 43.3884 427.626 41.3254C428.883 40.061 430.273 38.963 431.795 38.0314C433.383 37.0997 435.104 36.6339 436.957 36.6339C438.479 36.6339 439.802 37.1995 440.927 38.3308C442.184 39.4621 442.515 40.3272 441.92 40.9261C441.721 41.1258 441.688 41.392 441.82 41.7247C441.953 42.0574 442.052 42.4234 442.118 42.8227C442.251 43.1555 442.383 43.4882 442.515 43.8209C442.912 45.7508 443.508 47.1482 444.302 48.0133C445.162 48.8119 446.287 49.2777 447.677 49.4108C448.471 49.4774 449.066 49.4441 449.464 49.311C449.927 49.1779 450.754 48.8119 451.945 48.213C454.791 46.8155 457.074 45.1518 458.794 43.222C459.39 42.49 459.82 42.0907 460.084 42.0242C460.349 41.8911 460.647 41.9909 460.978 42.3236ZM440.232 40.5269L439.339 39.7283C439.008 39.3956 438.677 39.1959 438.346 39.1294C438.082 38.9963 437.519 38.9298 436.659 38.9298C435.335 38.9298 434.111 39.2625 432.986 39.928C431.861 40.5269 430.604 41.5583 429.214 43.0224C428.751 43.4882 428.288 44.0206 427.825 44.6195C427.361 45.2184 426.931 45.8173 426.534 46.4162C426.203 47.0151 425.906 47.5475 425.641 48.0133C425.442 48.4792 425.343 48.8452 425.343 49.1114C425.343 49.311 425.508 49.4108 425.839 49.4108C426.038 49.4108 426.336 49.3775 426.733 49.311C427.13 49.1779 427.593 48.945 428.122 48.6123C428.586 48.4126 429.38 47.9468 430.505 47.2148C431.63 46.4162 432.788 45.5511 433.979 44.6195C435.104 43.7544 436.163 42.9891 437.155 42.3236C438.214 41.5916 438.909 41.1591 439.24 41.026L440.232 40.5269Z" fill="white"/>
<path d="M439.737 27.8498C439.207 27.517 438.976 27.1178 439.042 26.6519C439.108 26.1861 439.406 25.7868 439.935 25.4541C440.398 25.1214 441.292 24.7554 442.615 24.3561C443.873 23.9568 445.395 23.5242 447.181 23.0584C448.902 22.5926 450.854 22.1268 453.038 21.661C455.155 21.1286 457.372 20.6628 459.688 20.2635C461.144 19.9308 462.401 19.6646 463.46 19.4649C464.519 19.2653 465.115 19.0989 465.247 18.9658C465.313 18.8993 465.379 18.5998 465.445 18.0675C465.512 17.4685 465.545 16.8031 465.545 16.0711C465.545 15.0063 465.578 14.2743 465.644 13.875C465.71 13.4758 465.809 13.2096 465.942 13.0765C466.537 12.7437 467.067 12.8768 467.53 13.4758C467.662 13.7419 467.762 14.0747 467.828 14.4739C467.894 14.8732 467.861 15.5387 467.728 16.4703L467.53 18.866L472.592 18.2671C475.372 17.9344 477.919 17.6682 480.235 17.4685C482.618 17.2689 484.735 17.1691 486.588 17.1691C488.838 17.1691 490.592 17.3354 491.849 17.6682C493.106 17.9344 493.735 18.3336 493.735 18.866C493.735 19.0657 493.636 19.2653 493.437 19.4649C493.305 19.5315 492.478 19.598 490.956 19.6646C489.5 19.6646 487.713 19.6646 485.595 19.6646C483.809 19.6646 482.221 19.6978 480.831 19.7644C479.507 19.8309 478.184 19.9308 476.86 20.0638C475.537 20.1304 474.18 20.2635 472.791 20.4631C471.467 20.6628 469.912 20.8957 468.125 21.1619C467.861 21.2284 467.629 21.295 467.431 21.3615C467.298 21.3615 467.166 21.5611 467.034 21.9604C466.901 22.3597 466.769 22.9919 466.637 23.857C466.57 24.7221 466.438 26.0197 466.239 27.7499C465.776 31.41 465.379 35.2031 465.048 39.1294C464.717 42.9891 464.453 46.7822 464.254 50.5088C464.056 54.2354 463.923 57.7624 463.857 61.0897C463.857 64.4836 463.923 67.5115 464.056 70.1733C464.122 70.8388 464.122 71.2381 464.056 71.3711C463.99 71.5042 463.824 71.6041 463.559 71.6706C463.162 71.7372 462.798 71.5042 462.468 70.9719C462.004 70.373 461.707 68.9089 461.574 66.5798C461.508 64.2507 461.574 60.8901 461.773 56.498C461.905 53.2372 462.07 49.9099 462.269 46.516C462.467 43.1222 462.699 39.8947 462.964 36.8335C463.229 33.7724 463.526 31.0107 463.857 28.5485C464.188 26.0197 464.486 24.0233 464.751 22.5593C464.817 22.0269 464.684 21.7608 464.353 21.7608C463.956 21.7608 463.129 21.8606 461.872 22.0602C460.681 22.2599 459.258 22.526 457.604 22.8588C455.949 23.1915 454.229 23.5908 452.442 24.0566C450.655 24.4559 449.001 24.8552 447.479 25.2545C445.891 25.6537 444.567 26.0863 443.509 26.5521C442.45 26.9514 441.854 27.2841 441.722 27.5503C441.325 28.3489 440.663 28.4487 439.737 27.8498Z" fill="white"/>
<path d="M503.306 41.5251C504.298 42.124 504.133 42.8893 502.81 43.8209C502.148 44.3533 501.122 44.9522 499.732 45.6177C498.409 46.2831 496.986 46.9486 495.464 47.6141C493.942 48.2795 492.453 48.8784 490.997 49.4108C489.542 49.8766 488.317 50.2094 487.325 50.409C486.795 50.5421 486.134 50.6419 485.339 50.7085C484.612 50.775 483.851 50.8416 483.056 50.9081C482.329 50.9081 481.634 50.8748 480.972 50.8083C480.376 50.7417 479.913 50.6752 479.582 50.6087C478.126 50.2094 477.002 49.5439 476.207 48.6123C475.48 47.6806 475.082 46.6159 475.016 45.418C475.016 44.1536 475.314 42.8227 475.91 41.4252C476.571 40.0278 477.597 38.6303 478.987 37.2328C480.31 35.9019 481.601 34.937 482.858 34.338C484.115 33.7391 485.24 33.4397 486.233 33.4397C487.292 33.4397 488.119 33.7391 488.714 34.338C489.376 34.937 489.707 35.9019 489.707 37.2328C489.707 38.231 489.442 39.2292 488.913 40.2274C488.383 41.1591 487.689 42.0242 486.828 42.8227C485.968 43.5547 485.009 44.1537 483.95 44.6195C482.891 45.0853 481.799 45.3182 480.674 45.3182C480.145 45.3182 479.615 45.3182 479.086 45.3182C478.623 45.2517 478.292 45.1518 478.093 45.0187C477.763 44.8857 477.531 44.8524 477.399 44.9189C477.332 44.9189 477.299 45.052 477.299 45.3182C477.299 45.8506 477.465 46.3497 477.796 46.8155C478.193 47.2813 478.656 47.6473 479.185 47.9135C479.913 48.2463 480.972 48.4792 482.362 48.6123C483.818 48.6788 485.174 48.579 486.431 48.3128C487.358 48.1132 488.483 47.7804 489.806 47.3146C491.196 46.7822 492.619 46.2166 494.074 45.6177C495.53 45.0187 496.953 44.3866 498.343 43.7211C499.732 43.0556 500.89 42.4234 501.817 41.8245C502.479 41.4252 502.975 41.3254 503.306 41.5251ZM478.987 40.6267C478.457 41.4252 478.193 41.9909 478.193 42.3236C478.193 42.5898 478.391 42.8227 478.788 43.0224C479.781 43.4216 481.005 43.3551 482.461 42.8227C483.255 42.5565 484.016 42.124 484.744 41.5251C485.472 40.8596 486.067 40.1941 486.531 39.5287C486.994 38.7967 487.292 38.0979 487.424 37.4325C487.556 36.767 487.424 36.2679 487.027 35.9352C486.696 35.669 486.167 35.6357 485.439 35.8353C484.777 35.9684 484.049 36.2679 483.255 36.7337C482.461 37.1995 481.667 37.7985 480.873 38.5305C480.145 39.1959 479.516 39.8947 478.987 40.6267Z" fill="white"/>
</svg>
