<svg width="126" height="40" viewBox="0 0 126 40" fill="none" xmlns="http://www.w3.org/2000/svg">
<path d="M0 0.0571289V3.97688H8.13628V36.078H0V39.9978H20.3039V36.078H12.1652V3.97688H20.3039V0.0571289H0Z" fill="#16D5D5"/>
<path d="M71.0565 0.0571289V3.97688H79.1928V36.078H71.0565V39.9978H91.3604V36.078H83.2217V3.97688H91.3604V0.0571289H71.0565Z" fill="#16D5D5"/>
<path d="M125.807 0.0571289H100.731V3.97688H111.256V39.9978H115.337V3.97688H125.807V0.0571289Z" fill="#16D5D5"/>
<path fill-rule="evenodd" clip-rule="evenodd" d="M63.5218 21.6975H64.1709L65.1155 17.8804L58.19 16.2073L58.1084 0.00237417H54.2473V15.2537L36.0058 10.8441L35.9551 0H32.094V9.90014L26.238 8.48615L25.3103 12.2343L32.094 13.9144V19.5725L26.238 18.1585L25.3103 21.9067L32.094 23.5868V40H36.1816L36.1044 24.5796L54.2473 29.0735V40H58.335L58.2887 30.0734L64.1313 31.5202L65.1131 27.5529L58.2636 25.8964L58.2103 20.382L63.5218 21.6975ZM54.2497 19.4011V24.9261L36.0841 20.5355L36.0307 14.8882L54.2497 19.4011Z" fill="#E96FB0"/>
</svg>
